<svg id="Layer_1" data-name="Layer 1" xmlns="http://www.w3.org/2000/svg" viewBox="0 0 365.69 381.11"><defs><style>.cls-1,.cls-2{fill:#d32030;}.cls-1{fill-rule:evenodd;}</style></defs><path class="cls-1" d="M459.88,219.68c-13.41-32.23-37.65-66.46-76.56-64.81-50.94,2.16-82.82,55.35-136.7,43.85-14-3-27.75-7.84-42.05-8.84-21-1.47-41.7,6.25-58,19.42A92.55,92.55,0,0,0,120.74,242c-11.13,24-11.13,63.13-1.2,87.36,7.13,17.4,4.7,12.45,10.11,20.66,1.25,1.4,5.63,3.5,5.6,5.37.27-15-13.61-17.93-12.59-34.79-8.94-25-8-54.94,2.09-76.73a88,88,0,0,1,24.57-31.17c16.4-13.23,35.91-19.78,54.94-18.45,9.25.64,18.18,3,27.64,5.39,4.5,1.16,9.15,2.36,13.81,3.36,31.57,6.74,56-7.54,79.55-21.36,18.86-11,36.68-21.48,58.25-22.39,37.73-1.6,60.14,32.87,72.29,62.08,18.51,44.5,22.64,97,11.64,147.79C454.26,430,420.85,488.45,375.79,529.45c-1.32,1.2-2.68,2.38-4,3.56l3.5,2.81c1.18-1,2.36-2.05,3.51-3.1,46.42-42.23,79.74-101.37,93-162.62C482.57,320.19,479.5,266.85,459.88,219.68Z" transform="translate(-112.24 -154.81)"/><path class="cls-2" d="M371.77,535.93c-34.92-57.81-91.82-87.22-142-113.16-53.56-27.68-99.82-51.59-112.47-101.92l4.85-1.22c12.1,48.15,57.43,71.57,109.92,98.7,50.79,26.24,108.36,56,144,115Z" transform="translate(-112.24 -154.81)"/></svg>