<svg id="Layer_1" data-name="Layer 1" xmlns="http://www.w3.org/2000/svg" viewBox="0 0 516.01 518.51"><defs><style>.cls-1{fill:#d32030;fill-rule:evenodd;}</style></defs><path class="cls-1" d="M178,204.68h0c19.26-15.54,42.18-23.24,64.53-21.68,10.87.76,21.36,3.47,32.47,6.34,5.28,1.36,10.75,2.77,16.22,3.94,37.09,7.92,65.74-8.86,93.44-25.08,22.16-13,43.09-25.24,68.43-26.31,44.32-1.88,70.64,38.62,84.91,72.93,21.75,52.27,26.61,113.92,13.68,173.6C536.21,459.91,497,528.54,444,576.7c-4.07,3.7-8.31,7.33-12.61,10.81a286.64,286.64,0,0,1-26.63,19.07c-50.6,32-109.06,47.15-164.6,42.57-41-3.38-80.17-12.88-110.19-26.74-39.74-18.36-64.69-44.08-74.14-76.48-12.92-44.3,23-76.9,57.71-108.43,12.2-11.09,23.73-21.56,32.61-32.19,23.3-27.93,16.68-49.25,3.92-78.59-12.47-28.69-12.82-59.83-.95-85.44A103.16,103.16,0,0,1,178,204.68m-3.27-4a108.61,108.61,0,0,0-30.3,38.46c-13.08,28.2-11.36,61.47.9,89.68,11.93,27.42,18.59,47.15-3.15,73.2-33.55,40.21-109.94,81.52-91.31,145.4C73,623.09,171,648.66,239.77,654.33c58.64,4.83,118.13-11.92,167.8-43.37a290.91,290.91,0,0,0,27.11-19.42q6.6-5.31,12.84-11c54.53-49.6,93.66-119.08,109.24-191,12.7-58.63,9.1-121.28-14-176.69-15.75-37.86-44.22-78.07-89.92-76.13-59.84,2.54-97.29,65-160.57,51.5-16.48-3.51-32.6-9.2-49.41-10.38-24.71-1.72-49,7.35-68.16,22.82Z" transform="translate(-47.99 -136.63)"/></svg>